<svg width="226" height="68" viewBox="0 0 226 68" fill="none" xmlns="http://www.w3.org/2000/svg">
<g clip-path="url(#clip0_1_17)">
<path d="M68.6712 67.4497C62.0566 67.4526 55.5897 65.4939 50.0883 61.8213C44.5869 58.1487 40.2982 52.9271 37.7646 46.817C35.2309 40.7068 34.5661 33.9826 35.8543 27.4946C37.1424 21.0066 40.3256 15.0464 45.0013 10.3676C49.677 5.6888 55.6352 2.50167 62.1223 1.20927C68.6094 -0.0831348 75.3341 0.577237 81.4459 3.10686C87.5577 5.63649 92.7821 9.92174 96.4583 15.4207C100.135 20.9196 102.098 27.3853 102.099 33.9999C102.091 42.8651 98.5676 51.3654 92.301 57.6361C86.0344 63.9069 77.5364 67.4361 68.6712 67.4497V67.4497ZM68.6712 1.66503C62.2736 1.66213 56.0188 3.55668 50.6981 7.10905C45.3773 10.6614 41.2297 15.712 38.7797 21.6219C36.3298 27.5319 35.6877 34.0356 36.9345 40.3106C38.1814 46.5855 41.2613 52.3497 45.7845 56.874C50.3078 61.3983 56.0713 64.4795 62.346 65.7278C68.6206 66.976 75.1245 66.3354 81.035 63.8868C86.9455 61.4382 91.997 57.2917 95.5506 51.9718C99.1042 46.6518 101 40.3975 100.999 33.9999C100.987 25.429 97.5776 17.2124 91.5178 11.1511C85.4579 5.08991 77.2421 1.67861 68.6712 1.66503V1.66503Z" fill="#22A9BC"/>
<path d="M68.6712 68C59.6575 67.9903 51.0159 64.4048 44.6429 58.0305C38.2699 51.6561 34.6863 43.0137 34.6785 34C34.6785 33.7082 34.7945 33.4283 35.0008 33.2219C35.2072 33.0156 35.487 32.8997 35.7789 32.8997C36.0707 32.8997 36.3506 33.0156 36.5569 33.2219C36.7633 33.4283 36.8792 33.7082 36.8792 34C36.8879 42.4291 40.2402 50.5104 46.2005 56.4707C52.1608 62.4309 60.2421 65.7833 68.6712 65.792C68.963 65.792 69.2429 65.9079 69.4492 66.1143C69.6556 66.3206 69.7715 66.6005 69.7715 66.8923C69.7715 67.1842 69.6556 67.464 69.4492 67.6704C69.2429 67.8767 68.963 67.9927 68.6712 67.9927V68Z" fill="#FF7C00"/>
<path d="M101.578 35.1003C101.286 35.1003 101.007 34.9844 100.8 34.778C100.594 34.5717 100.478 34.2918 100.478 34C100.469 25.5715 97.1174 17.4907 91.1579 11.5306C85.1984 5.57042 77.118 2.21768 68.6896 2.20797C68.3977 2.20797 68.1179 2.09204 67.9115 1.88569C67.7052 1.67934 67.5892 1.39947 67.5892 1.10765C67.5892 0.815824 67.7052 0.535946 67.9115 0.329595C68.1179 0.123244 68.3977 0.00732422 68.6896 0.00732422C77.7014 0.0180034 86.341 3.60291 92.7129 9.97556C99.0849 16.3482 102.669 24.9882 102.679 34C102.679 34.2918 102.563 34.5717 102.356 34.778C102.15 34.9844 101.87 35.1003 101.578 35.1003V35.1003Z" fill="#FF7C00"/>
<path d="M59.2891 20.3229H57.3525C55.942 20.3188 54.5448 20.5945 53.2416 21.134C51.9383 21.6735 50.7551 22.4662 49.7603 23.4661C49.3776 23.8507 49.0233 24.2626 48.7003 24.6985V24.6985C48.3102 24.6981 47.928 24.5891 47.5963 24.3837C47.2647 24.1784 46.9967 23.8848 46.8224 23.5358C46.337 22.63 46.1839 21.5828 46.3896 20.576C46.6996 20.6092 47.0121 20.5429 47.2818 20.3866C47.5516 20.2303 47.7645 19.9922 47.8897 19.7067C48.2382 18.9915 49.0891 16.8385 51.4475 16.039V12.4629C52.5849 13.359 53.522 14.4835 54.1983 15.7639C54.5941 15.804 54.9873 15.8677 55.3756 15.9546V12.4592C56.5688 13.399 57.5388 14.5918 58.2155 15.9515C58.8922 17.3113 59.2589 18.8043 59.2891 20.3229Z" fill="#22A9BC"/>
<path d="M69.0343 30.0498C68.9912 29.643 68.9251 29.2389 68.8362 28.8395C68.7812 28.6011 68.7189 28.37 68.6455 28.1389L68.5685 27.9115L68.4914 27.6841C68.4438 27.5594 68.3961 27.4347 68.3447 27.3174C68.2934 27.2 68.2641 27.1266 68.22 27.0313L68.1797 26.9433L68.0917 26.7562C67.978 26.5141 67.9009 26.3894 67.9009 26.3894C67.3376 25.3506 66.5922 24.4213 65.7003 23.6459C65.6416 23.5946 65.5829 23.5432 65.5206 23.4956C65.0386 23.0954 64.5191 22.7429 63.9691 22.4429L63.8151 22.3622C63.551 22.2265 63.2796 22.0982 63.0045 21.9955L62.8761 21.9441C62.7001 21.8744 62.5094 21.8121 62.3443 21.7534L62.1939 21.7057L61.9189 21.625L61.7281 21.5737C61.5007 21.515 61.2697 21.4636 61.0313 21.4196L60.7892 21.3793C60.6278 21.3536 60.4664 21.3316 60.3014 21.3169H60.1327L59.8026 21.2913H59.5532H57.3525C56.0631 21.2913 54.7864 21.5452 53.5951 22.0387C52.4039 22.5321 51.3215 23.2553 50.4098 24.167C49.498 25.0788 48.7748 26.1612 48.2814 27.3524C47.788 28.5437 47.534 29.8204 47.534 31.1098C47.534 32.3992 47.788 33.676 48.2814 34.8672C48.7748 36.0585 49.498 37.1408 50.4098 38.0526C51.3215 38.9643 52.4039 39.6875 53.5951 40.181C54.7864 40.6744 56.0631 40.9284 57.3525 40.9284H57.7193C58.006 40.94 58.2857 41.0205 58.5347 41.1632C58.7837 41.3058 58.9947 41.5063 59.1498 41.7478C59.3049 41.9892 59.3995 42.2644 59.4256 42.5502C59.4518 42.836 59.4088 43.1238 59.3001 43.3894C58.1594 45.9165 56.2705 46.5437 56.2705 46.5437C61.2 46.1402 64.2149 43.6278 66.0561 40.888C69.0673 36.5087 69.39 32.6796 69.0343 30.0498Z" fill="#22A9BC"/>
<path d="M92.1154 34.3668V35.7129C92.1154 37.1525 91.5435 38.5332 90.5255 39.5512C89.5075 40.5692 88.1268 41.1411 86.6872 41.1411H84.1821V37.9612C84.1801 36.6612 83.6629 35.415 82.7437 34.4958C81.8245 33.5766 80.5783 33.0593 79.2783 33.0574H74.5323V28.6561V27.1377H73.0652C72.6543 27.0989 72.2726 26.9082 71.9948 26.603C71.7171 26.2978 71.5631 25.8999 71.5631 25.4872C71.5631 25.0745 71.7171 24.6766 71.9948 24.3714C72.2726 24.0661 72.6543 23.8755 73.0652 23.8367H74.723C75.4842 23.886 76.1982 24.2232 76.7199 24.7797C77.2417 25.3362 77.5322 26.0704 77.5325 26.8332V28.6671H79.8395V26.8332C79.8398 26.0698 80.1308 25.3351 80.6533 24.7785C81.1759 24.2219 81.8907 23.8852 82.6526 23.8367V23.8367H84.3068C84.5366 23.815 84.7684 23.8415 84.9874 23.9146C85.2064 23.9877 85.4077 24.1057 85.5784 24.2611C85.7491 24.4164 85.8855 24.6058 85.9789 24.8169C86.0722 25.028 86.1204 25.2563 86.1204 25.4872C86.1204 25.718 86.0722 25.9463 85.9789 26.1575C85.8855 26.3686 85.7491 26.5579 85.5784 26.7133C85.4077 26.8687 85.2064 26.9866 84.9874 27.0597C84.7684 27.1328 84.5366 27.1593 84.3068 27.1377H82.8397V28.6561H85.022C85.8975 28.6561 86.7371 29.0039 87.3561 29.6229C87.9752 30.242 88.323 31.0816 88.323 31.9571V32.0011C88.323 32.1268 88.3477 32.2513 88.3958 32.3674C88.444 32.4836 88.5145 32.5891 88.6034 32.678C88.6922 32.7669 88.7978 32.8374 88.9139 32.8855C89.0301 32.9336 89.1545 32.9584 89.2803 32.9584H90.6667C91.0451 32.9544 91.4098 33.1003 91.6812 33.3641C91.9526 33.6279 92.1087 33.9884 92.1154 34.3668V34.3668Z" fill="#FF7C00"/>
<path d="M79.2783 33.9707H67.2115C66.6876 33.9702 66.1688 34.073 65.6846 34.2731C65.2005 34.4733 64.7606 34.7669 64.39 35.1371C64.0194 35.5074 63.7254 35.9471 63.5248 36.431C63.3242 36.915 63.2209 37.4337 63.2209 37.9575V48.2272C63.2209 49.2846 63.641 50.2987 64.3887 51.0464C65.1363 51.794 66.1504 52.2141 67.2078 52.2141H79.2747C79.6468 52.2137 80.0171 52.1619 80.375 52.06L83.2615 56.6117V37.9575C83.262 37.4342 83.1593 36.9158 82.9594 36.4321C82.7594 35.9484 82.4661 35.5089 82.0962 35.1387C81.7262 34.7684 81.287 34.4747 80.8035 34.2743C80.32 34.0739 79.8017 33.9707 79.2783 33.9707V33.9707Z" fill="#FF7C00"/>
<g style="mix-blend-mode:multiply">
<g style="mix-blend-mode:multiply">
<path d="M68.9719 33.9707C68.53 36.4482 67.5345 38.7939 66.0598 40.8331C65.283 42.001 64.3247 43.0374 63.2209 43.903V37.9575C63.2209 36.9002 63.641 35.8861 64.3887 35.1384C65.1363 34.3908 66.1504 33.9707 67.2078 33.9707H68.9719Z" fill="#22A9BC"/>
</g>
</g>
<path d="M28.8358 46.2026C25.5056 48.9485 21.3237 50.4501 17.0073 50.4499C7.37951 50.6296 -0.165039 43.3528 0.0146807 34.1798C-0.121026 24.7353 7.47121 17.4145 17.3668 17.5502C21.6554 17.5428 25.8063 19.0642 29.0742 21.8415C29.2257 21.9434 29.3528 22.0774 29.4466 22.2339C29.5404 22.3905 29.5986 22.5658 29.6171 22.7474C29.5973 23.0453 29.4859 23.3297 29.298 23.5616L26.3638 27.7172C26.2762 27.8841 26.1473 28.0257 25.9893 28.1285C25.8313 28.2312 25.6496 28.2917 25.4615 28.304C25.1368 28.2517 24.8283 28.1262 24.5592 27.9372C22.2082 26.2648 19.8132 25.4505 17.3264 25.4505C12.4447 25.4505 8.89062 28.9752 8.89062 34.0367C8.89062 39.0982 12.4593 42.5789 17.3264 42.5789C19.9896 42.5655 22.5717 41.6617 24.6619 40.0115C24.9279 39.7793 25.2603 39.6369 25.6119 39.6044C25.7803 39.6259 25.9414 39.6861 26.0827 39.7803C26.2239 39.8744 26.3415 40 26.4261 40.1472L29.3163 44.3027C29.4801 44.5275 29.5744 44.7952 29.5877 45.073C29.5584 45.4324 29.3346 45.7955 28.8358 46.2026Z" fill="#FF7C00"/>
<path d="M115.075 18.1809C115.978 18.1809 116.341 18.5477 116.341 19.4023V48.5975C116.341 49.4558 115.974 49.8189 115.075 49.8189H108.976C108.114 49.8189 107.755 49.4521 107.755 48.5975V19.4023C107.755 18.544 108.121 18.1809 108.976 18.1809H115.075Z" fill="#FF7C00"/>
<path d="M126.284 19.0868L142.371 33.5011V19.4023C142.371 18.544 142.738 18.1809 143.592 18.1809H149.736C150.55 18.1809 150.957 18.588 150.957 19.4023V48.5975C150.957 49.8189 150.59 50.4497 149.827 50.4497C149.149 50.4497 148.562 50.0426 147.341 48.9129L131.254 34.4987V48.5975C131.254 49.4558 130.887 49.8189 129.989 49.8189H123.889C123.027 49.8189 122.668 49.4521 122.668 48.5975V19.4023C122.668 18.1809 123.035 17.55 123.797 17.55C124.384 17.55 125.063 18.0012 126.284 19.0868Z" fill="#FF7C00"/>
<path d="M168.118 29.7526C168.118 22.5675 173.95 17.55 181.77 17.55C189.589 17.55 194.919 22.1604 194.919 29.3895C194.919 33.5011 193.881 36.3949 190.308 41.4124L185.203 48.5535C184.433 49.6538 184.102 49.8189 182.852 49.8189H175.678C174.999 49.8189 174.684 49.6355 174.684 49.2284C174.724 48.9281 174.851 48.6462 175.05 48.4178L181.377 40.5542C180.771 40.7094 180.147 40.7846 179.521 40.7779C172.831 40.7779 168.118 36.6663 168.118 29.7526ZM186.153 29.3859C186.153 26.8991 184.253 25.1386 181.634 25.1386C178.832 25.1386 176.932 26.8551 176.932 29.4776C176.932 31.9166 178.832 33.6808 181.498 33.6808C184.256 33.6845 186.164 31.9203 186.164 29.3895L186.153 29.3859Z" fill="#FF7C00"/>
<path d="M221.143 20.6237V37.3449H224.484C225.434 37.3449 225.885 37.752 225.885 38.6983V43.129C225.885 44.0789 225.519 44.4383 224.484 44.4383H221.143V48.5059C221.143 49.4118 220.776 49.8189 219.83 49.8189H213.965C213.019 49.8189 212.612 49.4118 212.612 48.5059V44.4383H199.089C197.281 44.4383 196.375 43.492 196.375 42.4504C196.375 41.5922 196.742 40.9136 197.842 39.6959L214.713 20.0808C216.518 18.0929 217.512 17.3704 218.645 17.3704C220.2 17.3704 221.143 18.4523 221.143 20.6237ZM207.448 37.3449H212.949V30.8823L207.448 37.3449Z" fill="#FF7C00"/>
</g>
<defs>
<clipPath id="clip0_1_17">
<rect width="225.885" height="68" fill="white"/>
</clipPath>
</defs>
</svg>
