<svg width="117" height="104" viewBox="0 0 117 104" fill="none" xmlns="http://www.w3.org/2000/svg">
<g clip-path="url(#clip0_1_372)">
<path d="M50.3152 26.8538V66.3569C50.85 67.3494 51.3288 68.3709 51.7496 69.4168H64.8406C65.2614 68.3709 65.7402 67.3494 66.275 66.3569V26.8538H50.3152Z" fill="#22A9BD"/>
<path d="M23.4592 86.8314C26.7988 86.8314 29.5061 84.124 29.5061 80.7844C29.5061 77.4448 26.7988 74.7375 23.4592 74.7375C20.1196 74.7375 17.4123 77.4448 17.4123 80.7844C17.4123 84.124 20.1196 86.8314 23.4592 86.8314Z" fill="#22A9BD"/>
<path d="M62.9123 76.6727H53.6552C54.3679 81.9123 53.7066 87.2473 51.7359 92.1543H64.8315C62.8609 87.2473 62.1995 81.9123 62.9123 76.6727Z" fill="#22A9BD"/>
<path d="M93.1173 57.5665C77.1371 57.5665 65.8697 73.4306 71.2268 88.5297C72.8299 93.0551 75.795 96.973 79.7148 99.7451C83.6345 102.517 88.3164 104.008 93.1173 104.011C106.054 104.011 116.567 93.5954 116.567 80.7889C116.567 67.9825 106.044 57.5665 93.1173 57.5665ZM93.1173 94.0849C90.4862 94.0849 87.9141 93.3046 85.7265 91.8428C83.5388 90.381 81.8337 88.3032 80.8269 85.8723C79.8201 83.4414 79.5568 80.7666 80.0703 78.186C80.5838 75.6055 81.851 73.2351 83.7116 71.3748C85.5723 69.5145 87.9428 68.2477 90.5235 67.7346C93.1041 67.2216 95.7789 67.4854 98.2097 68.4926C100.64 69.4998 102.718 71.2052 104.179 73.3931C105.641 75.5811 106.421 78.1532 106.42 80.7844C106.416 84.311 105.013 87.6919 102.519 90.1854C100.025 92.6789 96.644 94.0813 93.1173 94.0849Z" fill="#22A9BD"/>
<path d="M93.1082 86.8314C96.4479 86.8314 99.1552 84.124 99.1552 80.7844C99.1552 77.4448 96.4479 74.7375 93.1082 74.7375C89.7686 74.7375 87.0613 77.4448 87.0613 80.7844C87.0613 84.124 89.7686 86.8314 93.1082 86.8314Z" fill="#22A9BD"/>
<path d="M43.048 6.93712V2.09229C43.0494 1.68986 42.9155 1.29865 42.6677 0.981526C42.42 0.664402 42.0728 0.439786 41.682 0.343777C39.5979 -0.181003 37.4076 -0.102649 35.3663 0.569706C33.3251 1.24206 31.517 2.48072 30.1527 4.14132C34.6193 3.958 39.0584 4.92045 43.048 6.93712Z" fill="#22A9BD"/>
<path d="M43.048 57.4641V23.2634C43.0525 21.7035 42.7491 20.1581 42.1552 18.7157C41.5613 17.2734 40.6886 15.9624 39.5871 14.8579C38.4856 13.7534 37.1769 12.8772 35.7361 12.2794C34.2953 11.6817 32.7508 11.3741 31.1909 11.3744C28.1242 11.3744 26.4827 12.0392 26.1138 12.0005C25.745 11.9618 25.4991 12.2282 25.4308 12.2532C22.9811 13.0217 20.7126 14.2788 18.7623 15.9485C16.8121 17.6182 15.2205 19.6659 14.0837 21.9679C13.9061 22.3254 14.8601 19.5114 2.09912 58.9007C13.3574 48.0932 30.9905 47.3441 43.048 57.4641Z" fill="#22A9BD"/>
<path d="M73.5194 6.93712C77.5058 4.92283 81.9407 3.96046 86.4033 4.14132C85.0394 2.48028 83.2314 1.2413 81.19 0.56891C79.1486 -0.103482 76.9581 -0.181563 74.8741 0.343777C74.485 0.442056 74.1401 0.667945 73.8945 0.985331C73.649 1.30272 73.5169 1.69327 73.5194 2.09456V6.93712Z" fill="#22A9BD"/>
<path d="M23.4501 57.5665C10.5138 57.5665 0 67.9825 0 80.7889C0 93.5954 10.5229 104.011 23.4501 104.011C39.3734 104.011 50.7046 88.1905 45.3452 73.0618C43.7429 68.5339 40.7778 64.6133 36.8572 61.8387C32.9367 59.0641 28.2531 57.5717 23.4501 57.5665ZM23.4501 94.0849C20.8189 94.0853 18.2466 93.3055 16.0586 91.8439C13.8706 90.3824 12.1652 88.3048 11.1581 85.8739C10.1509 83.443 9.88729 80.7681 10.4005 78.1874C10.9137 75.6067 12.1807 73.2362 14.0413 71.3756C15.9019 69.5151 18.2724 68.248 20.8531 67.7348C23.4338 67.2216 26.1088 67.4852 28.5396 68.4924C30.9705 69.4995 33.0481 71.2049 34.5096 73.3929C35.9712 75.5809 36.7511 78.1531 36.7506 80.7844C36.7464 84.3106 35.3437 87.6912 32.8503 90.1846C30.3569 92.678 26.9763 94.0807 23.4501 94.0849Z" fill="#22A9BD"/>
<path d="M85.3765 11.3744C83.8172 11.375 82.2734 11.6832 80.8334 12.2814C79.3934 12.8795 78.0855 13.7559 76.9848 14.8603C75.884 15.9647 75.0119 17.2754 74.4184 18.7173C73.8249 20.1593 73.5218 21.7041 73.5263 23.2634V57.4641C85.5769 47.3601 103.212 48.0977 114.468 58.9121C108.663 40.9921 102.579 22.1706 102.484 21.9793C100.909 18.789 98.4712 16.1041 95.4473 14.2295C92.4233 12.355 88.9344 11.3658 85.3765 11.3744Z" fill="#22A9BD"/>
</g>
<defs>
<clipPath id="clip0_1_372">
<rect width="116.567" height="104" fill="white"/>
</clipPath>
</defs>
</svg>
