<svg width="104" height="104" viewBox="0 0 104 104" fill="none" xmlns="http://www.w3.org/2000/svg">
<g clip-path="url(#clip0_1_362)">
<path d="M53.7895 3.57906C47.9717 3.57312 42.1975 4.58291 36.727 6.56297L37.4298 7.26578C38.4752 8.31128 39.2517 9.59449 39.6928 11.0056C40.1339 12.4167 40.2266 13.9137 39.9628 15.3684L38.3622 24.2044C43.1202 21.7145 48.4113 20.4167 53.7814 20.4222C72.1805 20.4222 87.1487 35.3905 87.1487 53.7895C87.1487 72.1886 72.1886 87.1569 53.7895 87.1569C35.3905 87.1569 20.4222 72.1886 20.4222 53.7895C20.4167 48.4195 21.7145 43.1283 24.2044 38.3703L15.3705 39.9709C13.9151 40.2363 12.4171 40.1444 11.0051 39.7032C9.59302 39.262 8.30917 38.4847 7.26375 37.438L6.56297 36.7352C4.58291 42.2057 3.57312 47.9798 3.57906 53.7977C3.57906 81.4755 26.1036 104 53.7895 104C81.4755 104 104 81.4755 104 53.7895C104 26.1036 81.4755 3.57906 53.7895 3.57906Z" fill="#22A9BD"/>
<path d="M53.7895 56.8405C53.3889 56.8406 52.9921 56.7618 52.6219 56.6084C52.2518 56.4551 51.9155 56.2302 51.6323 55.9467L44.5859 48.9023C43.4126 51.1094 43.0706 53.6645 43.6224 56.1024C44.1742 58.5404 45.5829 60.6992 47.5923 62.186C49.6017 63.6728 52.0781 64.3887 54.5708 64.2034C57.0636 64.0181 59.4069 62.944 61.1744 61.1765C62.9419 59.409 64.0161 57.0656 64.2013 54.5729C64.3866 52.0801 63.6707 49.6037 62.184 47.5943C60.6972 45.585 58.5384 44.1762 56.1004 43.6244C53.6624 43.0727 51.1074 43.4146 48.9003 44.588L55.9467 51.6323C56.3753 52.0583 56.6676 52.602 56.7864 53.1944C56.9053 53.7869 56.8453 54.4013 56.614 54.9596C56.3828 55.5178 55.9908 55.9947 55.4879 56.3296C54.9849 56.6645 54.3938 56.8424 53.7895 56.8405Z" fill="#22A9BD"/>
<path d="M32.4817 36.7961C28.6203 41.6178 26.5187 47.6122 26.5241 53.7895C26.5241 68.8208 38.7542 81.055 53.7895 81.055C68.8248 81.055 81.0469 68.8248 81.0469 53.7895C81.0469 38.7542 68.8248 26.5241 53.7895 26.5241C47.6122 26.5187 41.6178 28.6203 36.7961 32.4817L44.4681 40.1537C47.8705 37.8265 52.0191 36.8533 56.1014 37.4249C60.1837 37.9965 63.9056 40.0716 66.5379 43.2438C69.1703 46.416 70.5234 50.4567 70.3323 54.5744C70.1413 58.6921 68.4197 62.5901 65.5049 65.5049C62.5901 68.4197 58.6921 70.1413 54.5744 70.3323C50.4567 70.5234 46.416 69.1702 43.2438 66.5379C40.0716 63.9056 37.9965 60.1837 37.4249 56.1014C36.8533 52.0191 37.8265 47.8705 40.1538 44.4681L32.4817 36.7961Z" fill="#22A9BD"/>
<path d="M33.9686 14.2817C34.0572 13.7963 34.0266 13.2967 33.8794 12.8258C33.7322 12.3548 33.4728 11.9267 33.1236 11.5781L22.4372 0.89375C22.0764 0.531596 21.6303 0.266045 21.1399 0.121553C20.6495 -0.0229383 20.1307 -0.0417259 19.6312 0.0669206C19.1316 0.175567 18.6675 0.408155 18.2814 0.743265C17.8954 1.07837 17.5998 1.50523 17.422 1.98453L14.4016 10.0872L31.6083 27.2939L33.9686 14.2817Z" fill="#22A9BD"/>
<path d="M13.7373 34.0173C13.9199 34.0172 14.102 34.0008 14.2817 33.9686L27.2939 31.6083L10.0872 14.4016L1.98453 17.422C1.50523 17.5998 1.07837 17.8954 0.743265 18.2814C0.408155 18.6675 0.175567 19.1316 0.0669206 19.6312C-0.0417259 20.1307 -0.0229383 20.6495 0.121553 21.1399C0.266045 21.6303 0.531596 22.0764 0.89375 22.4372L11.5781 33.1236C11.8613 33.4071 12.1975 33.632 12.5677 33.7853C12.9379 33.9387 13.3346 34.0175 13.7353 34.0173H13.7373Z" fill="#22A9BD"/>
</g>
<defs>
<clipPath id="clip0_1_362">
<rect width="104" height="104" fill="white"/>
</clipPath>
</defs>
</svg>
