<svg width="167" height="50" viewBox="0 0 167 50" fill="none" xmlns="http://www.w3.org/2000/svg">
<g clip-path="url(#clip0_27_101)">
<path d="M50.4935 49.5955C45.6298 49.5976 40.8748 48.1574 36.8296 45.4569C32.7845 42.7564 29.6311 38.9171 27.7681 34.4243C25.9051 29.9316 25.4163 24.9873 26.3634 20.2167C27.3106 15.4461 29.6512 11.0636 33.0892 7.62328C36.5272 4.183 40.9082 1.83953 45.6782 0.889233C50.4481 -0.0610639 55.3928 0.424504 59.8867 2.28452C64.3807 4.14454 68.2222 7.29546 70.9253 11.3388C73.6284 15.3821 75.0718 20.1363 75.0728 25C75.0671 31.5185 72.4762 37.7687 67.8684 42.3796C63.2606 46.9904 57.0121 49.5855 50.4935 49.5955ZM50.4935 1.22435C45.7894 1.22222 41.1903 2.61527 37.278 5.22731C33.3657 7.83934 30.316 11.553 28.5145 15.8985C26.7131 20.2441 26.2409 25.0263 27.1577 29.6402C28.0746 34.2541 30.3392 38.4925 33.6651 41.8192C36.9911 45.1459 41.2289 47.4114 45.8426 48.3293C50.4564 49.2472 55.2386 48.7761 59.5846 46.9756C63.9305 45.1752 67.6449 42.1263 70.2578 38.2146C72.8707 34.3029 74.2648 29.7041 74.2638 25C74.2552 18.6979 71.7483 12.6562 67.2925 8.19943C62.8367 3.74264 56.7957 1.23434 50.4935 1.22435Z" fill="#22A9BC"/>
<path d="M50.4935 50C43.8658 49.9928 37.5117 47.3565 32.8257 42.6694C28.1397 37.9824 25.5046 31.6277 25.4989 25C25.4989 24.7854 25.5842 24.5796 25.7359 24.4279C25.8876 24.2762 26.0934 24.1909 26.308 24.1909C26.5226 24.1909 26.7284 24.2762 26.8801 24.4279C27.0318 24.5796 27.117 24.7854 27.117 25C27.1235 31.1978 29.5884 37.14 33.971 41.5226C38.3535 45.9051 44.2957 48.37 50.4935 48.3765C50.7081 48.3765 50.9139 48.4617 51.0656 48.6134C51.2174 48.7652 51.3026 48.971 51.3026 49.1855C51.3026 49.4001 51.2174 49.6059 51.0656 49.7576C50.9139 49.9094 50.7081 49.9946 50.4935 49.9946V50Z" fill="#FF7C00"/>
<path d="M74.6899 25.809C74.4753 25.809 74.2695 25.7238 74.1178 25.5721C73.966 25.4203 73.8808 25.2146 73.8808 25C73.8744 18.8026 71.4098 12.8608 67.0279 8.47835C62.6459 4.09588 56.7044 1.63063 50.507 1.62349C50.2924 1.62349 50.0866 1.53825 49.9349 1.38652C49.7832 1.23479 49.6979 1.02901 49.6979 0.814433C49.6979 0.599856 49.7832 0.394064 49.9349 0.242335C50.0866 0.0906065 50.2924 0.00537109 50.507 0.00537109C57.1333 0.0132234 63.486 2.64918 68.1712 7.33496C72.8565 12.0207 75.4918 18.3737 75.4989 25C75.4989 25.2146 75.4137 25.4203 75.262 25.5721C75.1102 25.7238 74.9044 25.809 74.6899 25.809Z" fill="#FF7C00"/>
<path d="M43.5949 14.9432H42.171C41.1339 14.9402 40.1065 15.1429 39.1482 15.5396C38.19 15.9364 37.3199 16.5192 36.5885 17.2545C36.307 17.5372 36.0466 17.8401 35.8091 18.1606C35.5222 18.1603 35.2412 18.0801 34.9973 17.9292C34.7534 17.7782 34.5564 17.5623 34.4283 17.3057C34.0714 16.6396 33.9588 15.8697 34.11 15.1293C34.3379 15.1538 34.5677 15.105 34.7661 14.9901C34.9644 14.8752 35.121 14.7001 35.2131 14.4902C35.4693 13.9643 36.0949 12.3812 37.829 11.7933V9.16383C38.6654 9.82273 39.3544 10.6496 39.8517 11.591C40.1428 11.6205 40.4318 11.6674 40.7174 11.7313V9.16113C41.5947 9.85214 42.3079 10.7292 42.8055 11.729C43.3031 12.7289 43.5727 13.8266 43.5949 14.9432Z" fill="#22A9BC"/>
<path d="M50.7605 22.0954C50.7288 21.7962 50.6802 21.4991 50.6149 21.2054C50.5744 21.0301 50.5286 20.8602 50.4746 20.6903L50.418 20.5231L50.3614 20.3559C50.3263 20.2642 50.2912 20.1725 50.2535 20.0862C50.2157 19.9999 50.1942 19.946 50.1618 19.8759L50.1321 19.8112L50.0674 19.6736C49.9838 19.4956 49.9272 19.4039 49.9272 19.4039C49.5129 18.6401 48.9648 17.9568 48.3091 17.3867C48.2659 17.3489 48.2227 17.3111 48.1769 17.2761C47.8225 16.9819 47.4405 16.7227 47.0361 16.5021L46.9229 16.4428C46.7287 16.343 46.5291 16.2486 46.3269 16.1731L46.2325 16.1353C46.103 16.0841 45.9628 16.0382 45.8414 15.9951L45.7308 15.96L45.5286 15.9007L45.3883 15.8629C45.2211 15.8198 45.0512 15.782 44.8759 15.7497L44.6979 15.72C44.5793 15.7011 44.4606 15.6849 44.3393 15.6742H44.2152L43.9725 15.6553H43.7891H42.171C41.2229 15.6553 40.2841 15.842 39.4082 16.2048C38.5323 16.5676 37.7364 17.0994 37.066 17.7698C36.3956 18.4402 35.8638 19.2361 35.501 20.112C35.1382 20.9879 34.9515 21.9267 34.9515 22.8748C34.9515 23.8229 35.1382 24.7617 35.501 25.6376C35.8638 26.5135 36.3956 27.3094 37.066 27.9798C37.7364 28.6502 38.5323 29.1819 39.4082 29.5448C40.2841 29.9076 41.2229 30.0943 42.171 30.0943H42.4407C42.6515 30.1029 42.8571 30.1621 43.0402 30.267C43.2233 30.3718 43.3785 30.5193 43.4925 30.6968C43.6065 30.8743 43.6761 31.0767 43.6953 31.2868C43.7146 31.497 43.6829 31.7086 43.603 31.9039C42.7643 33.7621 41.3754 34.2232 41.3754 34.2232C45 33.9266 47.2168 32.0792 48.5706 30.0647C50.7848 26.8446 51.0221 24.0291 50.7605 22.0954Z" fill="#22A9BC"/>
<path d="M67.7319 25.2696V26.2594C67.7319 27.3179 67.3114 28.3332 66.5629 29.0817C65.8144 29.8302 64.7991 30.2507 63.7406 30.2507H61.8986V27.9125C61.8972 26.9567 61.5168 26.0404 60.8409 25.3645C60.165 24.6886 59.2487 24.3083 58.2929 24.3068H54.8031V21.0706V19.9541H53.7244C53.4223 19.9255 53.1416 19.7854 52.9374 19.5609C52.7331 19.3365 52.6199 19.0439 52.6199 18.7405C52.6199 18.437 52.7331 18.1445 52.9374 17.92C53.1416 17.6956 53.4223 17.5554 53.7244 17.5269H54.9434C55.5031 17.5632 56.0281 17.8111 56.4117 18.2203C56.7954 18.6295 57.009 19.1693 57.0092 19.7302V21.0787H58.7055V19.7302C58.7057 19.1689 58.9197 18.6287 59.3039 18.2194C59.6882 17.8101 60.2138 17.5625 60.774 17.5269H61.9903C62.1593 17.5109 62.3297 17.5305 62.4907 17.5842C62.6518 17.6379 62.7998 17.7247 62.9253 17.8389C63.0508 17.9532 63.1511 18.0924 63.2198 18.2476C63.2884 18.4029 63.3238 18.5707 63.3238 18.7405C63.3238 18.9102 63.2884 19.0781 63.2198 19.2333C63.1511 19.3886 63.0508 19.5278 62.9253 19.642C62.7998 19.7563 62.6518 19.843 62.4907 19.8968C62.3297 19.9505 62.1593 19.97 61.9903 19.9541H60.9115V21.0706H62.5162C63.1599 21.0706 63.7773 21.3263 64.2325 21.7815C64.6877 22.2367 64.9434 22.854 64.9434 23.4978V23.5301C64.9434 23.6226 64.9616 23.7141 64.997 23.7995C65.0323 23.8849 65.0842 23.9625 65.1495 24.0279C65.2149 24.0932 65.2925 24.1451 65.3779 24.1804C65.4633 24.2158 65.5548 24.234 65.6473 24.234H66.6667C66.945 24.2311 67.2131 24.3384 67.4127 24.5323C67.6122 24.7263 67.727 24.9914 67.7319 25.2696Z" fill="#FF7C00"/>
<path d="M58.2929 24.9783H49.4202C49.035 24.9779 48.6535 25.0535 48.2975 25.2007C47.9415 25.3478 47.6181 25.5637 47.3456 25.8359C47.0731 26.1082 46.8569 26.4315 46.7094 26.7873C46.5619 27.1432 46.486 27.5246 46.486 27.9098V35.461C46.486 36.2385 46.7948 36.9841 47.3446 37.5339C47.8944 38.0837 48.64 38.3925 49.4175 38.3925H58.2902C58.5638 38.3922 58.8361 38.3541 59.0993 38.2792L61.2217 41.6261V27.9098C61.2221 27.5249 61.1466 27.1438 60.9995 26.7881C60.8525 26.4325 60.6368 26.1093 60.3648 25.8371C60.0928 25.5648 59.7698 25.3488 59.4143 25.2015C59.0588 25.0541 58.6777 24.9783 58.2929 24.9783Z" fill="#FF7C00"/>
<g style="mix-blend-mode:multiply">
<g style="mix-blend-mode:multiply">
<path d="M50.7147 24.9783C50.3897 26.7999 49.6577 28.5247 48.5734 30.0241C48.0022 30.8829 47.2975 31.6449 46.486 32.2814V27.9098C46.486 27.1323 46.7948 26.3867 47.3446 25.8369C47.8944 25.2871 48.64 24.9783 49.4175 24.9783H50.7147Z" fill="#22A9BC"/>
</g>
</g>
<path d="M21.2028 33.9724C18.7541 35.9915 15.6792 37.0956 12.5054 37.0954C5.42611 37.2275 -0.121358 31.8769 0.0107888 25.1321C-0.0889954 18.1876 5.49353 12.8047 12.7697 12.9044C15.9231 12.899 18.9752 14.0177 21.3781 16.0598C21.4894 16.1347 21.5829 16.2332 21.6519 16.3484C21.7209 16.4635 21.7637 16.5924 21.7772 16.7259C21.7627 16.9449 21.6808 17.1541 21.5426 17.3246L19.3851 20.3802C19.3207 20.5029 19.2259 20.607 19.1098 20.6826C18.9936 20.7581 18.86 20.8026 18.7217 20.8117C18.483 20.7732 18.2561 20.681 18.0583 20.542C16.3296 19.3122 14.5685 18.7135 12.74 18.7135C9.15048 18.7135 6.53722 21.3052 6.53722 25.0269C6.53722 28.7486 9.16127 31.3079 12.74 31.3079C14.6982 31.298 16.5968 30.6335 18.1338 29.4201C18.3293 29.2494 18.5737 29.1446 18.8323 29.1207C18.9561 29.1366 19.0746 29.1808 19.1784 29.2501C19.2823 29.3193 19.3687 29.4117 19.431 29.5199L21.5561 32.5754C21.6765 32.7407 21.7459 32.9375 21.7557 33.1418C21.7341 33.4061 21.5696 33.6731 21.2028 33.9724Z" fill="#FF7C00"/>
<path d="M84.6143 13.3684C85.2778 13.3684 85.5448 13.6381 85.5448 14.2665V35.7336C85.5448 36.3646 85.2751 36.6316 84.6143 36.6316H80.1294C79.4957 36.6316 79.2314 36.3619 79.2314 35.7336V14.2665C79.2314 13.6354 79.5011 13.3684 80.1294 13.3684H84.6143Z" fill="#FF7C00"/>
<path d="M92.856 14.0345L104.684 24.6332V14.2665C104.684 13.6354 104.954 13.3684 105.583 13.3684H110.1C110.699 13.3684 110.998 13.6678 110.998 14.2665V35.7336C110.998 36.6316 110.728 37.0955 110.167 37.0955C109.668 37.0955 109.237 36.7961 108.339 35.9655L96.5103 25.3668V35.7336C96.5103 36.3646 96.2406 36.6316 95.5798 36.6316H91.0949C90.4612 36.6316 90.1969 36.3619 90.1969 35.7336V14.2665C90.1969 13.3684 90.4666 12.9045 91.0275 12.9045C91.459 12.9045 91.958 13.2363 92.856 14.0345Z" fill="#FF7C00"/>
<path d="M123.616 21.877C123.616 16.5939 127.905 12.9045 133.654 12.9045C139.404 12.9045 143.323 16.2945 143.323 21.61C143.323 24.6332 142.559 26.7611 139.933 30.4504L136.179 35.7012C135.612 36.5103 135.369 36.6316 134.45 36.6316H129.175C128.676 36.6316 128.444 36.4968 128.444 36.1974C128.473 35.9766 128.567 35.7693 128.714 35.6014L133.366 29.8193C132.92 29.9334 132.461 29.9887 132.001 29.9838C127.082 29.9838 123.616 26.9606 123.616 21.877ZM136.877 21.6073C136.877 19.7789 135.48 18.4844 133.554 18.4844C131.494 18.4844 130.097 19.7465 130.097 21.6748C130.097 23.4682 131.494 24.7654 133.455 24.7654C135.483 24.7681 136.885 23.4709 136.885 21.61L136.877 21.6073Z" fill="#FF7C00"/>
<path d="M162.605 15.1646V27.4596H165.062C165.76 27.4596 166.092 27.759 166.092 28.4548V31.7126C166.092 32.4111 165.823 32.6754 165.062 32.6754H162.605V35.6662C162.605 36.3323 162.335 36.6317 161.64 36.6317H157.327C156.632 36.6317 156.332 36.3323 156.332 35.6662V32.6754H146.389C145.059 32.6754 144.393 31.9796 144.393 31.2137C144.393 30.5826 144.663 30.0837 145.472 29.1883L157.878 14.7654C159.204 13.3037 159.935 12.7725 160.769 12.7725C161.912 12.7725 162.605 13.568 162.605 15.1646ZM152.535 27.4596H156.58V22.7077L152.535 27.4596Z" fill="#FF7C00"/>
</g>
<defs>
<clipPath id="clip0_27_101">
<rect width="166.092" height="50" fill="white"/>
</clipPath>
</defs>
</svg>
