<svg width="33" height="32" viewBox="0 0 33 32" fill="none" xmlns="http://www.w3.org/2000/svg">
<g clip-path="url(#clip0_1_47)">
<rect x="0.885437" width="32" height="32" rx="4" fill="#3D8ECB"/>
<path d="M24.6756 8.1052L7.77626 14.6219C6.62295 15.0851 6.62962 15.7285 7.56466 16.0154L11.9034 17.3689L21.942 11.0352C22.4166 10.7464 22.8503 10.9017 22.4939 11.2182L14.3606 18.5584H14.3587L14.3606 18.5594L14.0613 23.0315C14.4998 23.0315 14.6933 22.8304 14.9392 22.5931L17.0466 20.5438L21.4301 23.7817C22.2384 24.2268 22.8189 23.998 23.02 23.0334L25.8976 9.47202C26.1921 8.29107 25.4467 7.75635 24.6756 8.1052Z" fill="white"/>
</g>
<defs>
<clipPath id="clip0_1_47">
<rect width="32" height="32" fill="white" transform="translate(0.885437)"/>
</clipPath>
</defs>
</svg>
