<svg width="33" height="32" viewBox="0 0 33 32" fill="none" xmlns="http://www.w3.org/2000/svg">
<g clip-path="url(#clip0_1_44)">
<rect x="0.885437" width="32" height="32" rx="4" fill="#55ACEE"/>
<path d="M27.8854 9.1308C27.0759 9.49219 26.206 9.73643 25.293 9.84631C26.225 9.28394 26.9406 8.39339 27.2776 7.33232C26.3916 7.86163 25.4223 8.23457 24.4115 8.43501C23.5881 7.55191 22.4152 7 21.1169 7C18.6242 7 16.6032 9.03459 16.6032 11.544C16.6032 11.9002 16.6432 12.247 16.7201 12.5796C12.9689 12.3901 9.64314 10.581 7.41693 7.8318C7.02849 8.50293 6.80591 9.28359 6.80591 10.1163C6.80591 11.6928 7.60281 13.0836 8.81384 13.8985C8.09708 13.8759 7.39609 13.681 6.76939 13.3301C6.76913 13.3491 6.76913 13.3682 6.76913 13.3873C6.76913 15.5889 8.32494 17.4256 10.3897 17.843C9.72503 18.025 9.02785 18.0517 8.35141 17.9209C8.92573 19.7262 10.5927 21.0399 12.5677 21.0767C11.023 22.2954 9.07673 23.0219 6.96215 23.0219C6.59777 23.0219 6.23855 23.0004 5.88544 22.9584C7.88288 24.2477 10.2554 25 12.8043 25C21.1064 25 25.6462 18.0758 25.6462 12.071C25.6462 11.8739 25.642 11.6779 25.6332 11.4831C26.5168 10.84 27.2795 10.0434 27.8854 9.1308Z" fill="white"/>
</g>
<defs>
<clipPath id="clip0_1_44">
<rect width="32" height="32" fill="white" transform="translate(0.885437)"/>
</clipPath>
</defs>
</svg>
