<svg width="22" height="22" viewBox="0 0 22 22" fill="none" xmlns="http://www.w3.org/2000/svg">
<rect width="22" height="22" rx="2" fill="#FF7C00"/>
<path d="M14.6492 8.65933L7.06829 16.2402C6.89376 16.4088 6.66 16.5021 6.41736 16.5C6.17472 16.4979 5.94262 16.4005 5.77104 16.229C5.59947 16.0574 5.50214 15.8253 5.50003 15.5826C5.49793 15.34 5.5912 15.1062 5.75977 14.9317L13.3407 7.35081H8.21764C7.97221 7.35081 7.73683 7.25331 7.56328 7.07976C7.38974 6.90621 7.29224 6.67084 7.29224 6.4254C7.29224 6.17997 7.38974 5.94459 7.56328 5.77104C7.73683 5.5975 7.97221 5.5 8.21764 5.5H15.5746C15.82 5.5 16.0554 5.5975 16.229 5.77104C16.4025 5.94459 16.5 6.17997 16.5 6.4254V13.7824C16.5 14.0278 16.4025 14.2632 16.229 14.4367C16.0554 14.6103 15.82 14.7078 15.5746 14.7078C15.3292 14.7078 15.0938 14.6103 14.9202 14.4367C14.7467 14.2632 14.6492 14.0278 14.6492 13.7824V8.65933Z" fill="white"/>
</svg>
