<svg width="33" height="32" viewBox="0 0 33 32" fill="none" xmlns="http://www.w3.org/2000/svg">
<g clip-path="url(#clip0_1_36)">
<rect x="0.885437" width="32" height="32" rx="4" fill="#D60606"/>
<path d="M27.3999 10.3685C27.2737 9.9107 27.0276 9.49334 26.686 9.15799C26.3444 8.82263 25.9192 8.58097 25.4529 8.45708C23.7456 8 16.8745 8 16.8745 8C16.8745 8 10.003 8.01384 8.2957 8.47091C7.82935 8.59482 7.4042 8.83649 7.0626 9.17186C6.72099 9.50723 6.47484 9.9246 6.34866 10.3824C5.83226 13.3602 5.63193 17.8978 6.36284 20.7565C6.48903 21.2143 6.73519 21.6317 7.07679 21.967C7.4184 22.3024 7.84354 22.544 8.30988 22.6679C10.0171 23.125 16.8885 23.125 16.8885 23.125C16.8885 23.125 23.7597 23.125 25.4669 22.6679C25.9333 22.544 26.3584 22.3024 26.7 21.967C27.0417 21.6317 27.2878 21.2143 27.414 20.7565C27.9587 17.7745 28.1265 13.2397 27.3999 10.3685Z" fill="white"/>
<path d="M14.5864 19.0514L20.6666 15.5297L14.5865 12.0081L14.5864 19.0514Z" fill="#D60606"/>
</g>
<defs>
<clipPath id="clip0_1_36">
<rect width="32" height="32" fill="white" transform="translate(0.885437)"/>
</clipPath>
</defs>
</svg>
